<svg width="170" height="134" viewBox="0 0 170 134" fill="none" xmlns="http://www.w3.org/2000/svg">
  <path fill-rule="evenodd" clip-rule="evenodd"
    d="M67.7675 71.0649C68.9677 71.3501 70.1393 71.6924 71.3109 72.0632L67.6531 70.8367L67.7675 71.0649ZM60.8234 60.6536C62.5094 62.6788 64.024 64.8466 65.3956 67.1286C66.0529 68.1269 66.6816 69.1538 67.2817 70.1806H82.3985C82.8557 70.1236 83.313 70.0951 83.7702 70.0665C86.0849 69.5531 88.3995 69.1823 90.7428 69.0111C91.4 68.9256 92.0573 68.84 92.7146 68.783C93.6576 68.5548 94.6006 68.3836 95.5436 68.2125C96.5438 67.8702 97.5439 67.5849 98.5727 67.2997C98.887 67.1571 99.2299 67.0145 99.5729 66.9004C100.173 66.4725 100.802 66.0732 101.43 65.6738C101.973 65.2745 102.516 64.8751 103.059 64.5043C104.174 62.8785 105.402 61.3667 106.688 59.9119C107.631 58.4287 108.66 57.0025 109.717 55.6333C110.289 54.7491 110.918 53.8648 111.546 53.0091C111.689 52.8094 111.804 52.6098 111.946 52.4386L112.461 51.6685C113.232 50.5275 114.032 49.415 114.861 48.3597L115.204 47.7892C116.033 46.3915 116.919 45.1079 117.862 43.7958L118.376 42.9686C118.662 42.5122 118.976 42.0558 119.262 41.5994C120.434 39.5172 121.719 37.5205 123.148 35.6664C123.92 34.4399 124.749 33.2704 125.606 32.1294C126.092 31.4733 126.606 30.8173 127.12 30.1612C126.978 29.933 126.863 29.7334 126.72 29.5052C120.719 19.9781 112.146 12.0769 101.688 6.88552C80.9697 -3.38318 56.2798 -1.32944 37.5337 12.191C27.332 19.5788 19.7879 29.7049 15.6157 41.086C17.216 40.9434 18.8163 40.8578 20.4451 40.8578C36.8765 40.8008 51.5075 48.5878 60.8234 60.6536Z"
    fill="#FDF8EC" />
  <path fill-rule="evenodd" clip-rule="evenodd"
    d="M11.8149 60.3682C63.5666 65.3885 89.4281 67.9271 89.4281 67.9271C108.803 66.3583 124.891 52.41 129.178 33.4985C127.663 30.9883 126.406 29.0202 125.434 27.5654C119.919 28.1359 115.175 31.7014 113.118 36.8358C110.975 43.7672 105.374 49.1297 98.3439 50.9267C91.2856 52.7238 83.7986 50.7556 78.5692 45.7068C61.9949 31.73 41.1914 29.6477 16.1585 39.46C13.5295 46.1061 12.0436 53.1801 11.8149 60.3682Z"
    fill="#F9D8C1" />
  <path fill-rule="evenodd" clip-rule="evenodd"
    d="M11.7866 61.5664C46.564 81.0198 70.0822 89.4915 82.3415 87.0384C93.4005 85.4411 113.775 72.8619 143.438 49.301C137.865 45.3932 132.921 39.8595 128.692 32.6714C122.72 33.8979 118.405 37.7202 115.719 44.0525C112.318 52.296 105.374 58.5998 96.8296 61.167C88.2568 63.7342 78.998 62.308 71.6254 57.2877C53.1937 46.5341 30.3898 46.5912 12.0152 57.4589C11.8438 59.3985 11.7866 60.7677 11.7866 61.5664Z"
    fill="#F7C7A6" />
  <path fill-rule="evenodd" clip-rule="evenodd"
    d="M47.9644 58.2288C52.508 73.1469 57.3088 81.3619 62.3382 82.8452C90.7716 110.656 126.149 105.978 168.442 68.8113C167.928 65.9874 166.87 63.2491 165.356 60.796C162.327 56.0325 157.24 52.9233 151.611 52.3528C148.096 51.6968 145.209 50.5558 142.952 48.9585C131.779 48.1027 120.977 53.123 114.404 62.1366C106.489 73.0043 93.5435 79.1085 80.0841 78.3098C66.6532 77.5397 54.5369 69.9522 47.9644 58.2288Z"
    fill="#F97673" />
  <path fill-rule="evenodd" clip-rule="evenodd"
    d="M76.2549 82.8454C86.9424 103.582 98.4587 116.162 110.861 120.611C122.72 118.073 141.895 105.18 168.385 81.9041C169.271 77.1976 169.214 72.3485 168.213 67.642C158.526 65.303 148.61 69.3249 138.494 79.6507C121.634 96.5084 94.7437 97.8776 76.2549 82.8454Z"
    fill="#EC7463" />
  <path fill-rule="evenodd" clip-rule="evenodd"
    d="M84.1704 92.9142C90.6572 114.165 97.8299 125.631 105.831 127.913C119.776 128.37 133.55 124.719 145.095 116.875C152.553 111.683 158.726 104.809 163.07 96.7935C166.327 90.889 168.328 84.3855 168.928 77.6538C160.126 78.1387 152.411 83.5583 145.781 93.9411C138.865 104.267 127.149 110.4 114.69 110.2C102.231 110 90.7144 103.497 84.1704 92.9142Z"
    fill="#E8543F" />
  <path fill-rule="evenodd" clip-rule="evenodd"
    d="M88.8283 119.156C92.1432 119.813 93.8006 120.126 93.8006 120.126C103.945 103.354 107.374 87.6943 104.088 73.147C103.431 70.808 102.031 70.6369 100.487 72.3769C90.2 84.4996 86.3136 100.074 88.8283 119.156Z"
    fill="#54565C" />
  <path
    d="M101.402 73.5751C101.459 73.2898 101.745 73.1187 102.03 73.2042C102.316 73.2613 102.488 73.5465 102.402 73.8318L92.8861 112.197C92.8289 112.482 92.5432 112.653 92.2574 112.568C91.9716 112.511 91.8002 112.225 91.8859 111.94L101.402 73.5751Z"
    fill="white" />
  <path fill-rule="evenodd" clip-rule="evenodd"
    d="M79.3696 118.615C79.5125 121.981 79.5697 123.664 79.5697 123.664C98.2586 129.654 114.318 129.368 127.721 122.779C129.835 121.61 129.692 120.212 127.635 119.1C113.461 111.912 97.3727 111.741 79.3696 118.615Z"
    fill="#4C4E54" />
  <path
    d="M126.692 120.269C126.977 120.269 127.206 120.497 127.206 120.811C127.206 121.096 126.977 121.325 126.663 121.325L87.0564 120.954C86.7706 120.954 86.542 120.726 86.542 120.412C86.542 120.127 86.7706 119.898 87.0849 119.898L126.692 120.269Z"
    fill="white" />
  <path fill-rule="evenodd" clip-rule="evenodd"
    d="M85.7134 118.415C88.7139 120.012 90.2284 120.839 90.2284 120.839C107.06 109.173 116.804 96.3942 119.405 82.5315C119.719 80.2781 118.405 79.679 116.147 80.7344C101.116 88.2078 90.9428 100.758 85.7134 118.415Z"
    fill="#4C4E54" />
  <path
    d="M116.576 82.0182C116.747 81.79 117.119 81.733 117.347 81.8756C117.604 82.0182 117.662 82.332 117.462 82.5602L92.5144 113.537C92.343 113.766 91.9715 113.823 91.7429 113.68C91.4857 113.537 91.4286 113.224 91.6286 112.995L116.576 82.0182Z"
    fill="white" />
  <path fill-rule="evenodd" clip-rule="evenodd"
    d="M87.771 117.845C89.4856 120.754 90.3429 122.209 90.3429 122.209C109.66 118.643 123.663 110.828 132.35 98.705C133.665 96.6797 132.864 95.5103 130.521 95.5103C114.661 95.8525 100.402 103.297 87.771 117.845Z"
    fill="#54565C" />
  <path
    d="M130.235 96.965C130.493 96.8223 130.807 96.9364 130.95 97.1932C131.093 97.4499 130.978 97.7636 130.721 97.9063L95.658 116.276C95.4008 116.418 95.0865 116.304 94.9436 116.048C94.8007 115.791 94.915 115.477 95.1722 115.335L130.235 96.965Z"
    fill="white" />
  <path fill-rule="evenodd" clip-rule="evenodd"
    d="M42.5344 117.074C56.794 93.8842 66.6242 78.966 63.2236 65.2174C62.9093 62.2794 56.1653 60.4824 50.9073 58.0863C50.9073 58.0863 44.0204 57.3162 30.2466 55.7759C22.5024 57.5444 16.3014 59.9689 16.3014 59.9689C10.3575 110.571 19.902 131.251 42.5344 117.074Z"
    fill="#54565C" />
  <path fill-rule="evenodd" clip-rule="evenodd"
    d="M27.0465 119.699C11.8439 109.287 9.72925 94.3977 20.7597 75.0869C18.1592 79.7078 18.8737 85.4697 22.4743 89.3489C26.1035 93.2282 31.8187 94.3122 36.6195 92.0302C41.4203 89.7483 44.1922 84.6425 43.4778 79.394C42.592 71.664 46.164 67.1857 53.0795 66.7578C48.9645 111.455 40.3059 129.083 27.0465 119.699Z"
    fill="#31333B" />
  <path fill-rule="evenodd" clip-rule="evenodd"
    d="M37.7052 129.055C43.4205 121.895 45.2494 111.084 43.1919 96.651C43.9348 102.099 41.5344 107.462 37.248 109.915C32.9616 112.368 27.7892 111.37 24.4744 107.433C21.131 103.497 20.388 97.5068 22.6455 92.6577C25.8175 85.441 24.2172 79.7933 18.5305 76.8838C14.9013 92.3439 12.7295 104.895 12.0151 114.536L14.1869 115.106C14.9585 115.306 15.7015 115.705 16.3587 116.247L16.6731 116.532C17.2732 116.761 17.8161 117.131 18.3305 117.588L19.5879 118.757L20.588 119.613C20.6452 119.67 20.6738 119.699 20.7309 119.756C21.4739 119.984 22.074 120.326 22.7027 120.84L23.5314 121.553L24.4172 122.152L26.3319 123.264C26.8177 123.549 27.2177 123.892 27.6464 124.291L28.275 124.576C28.8466 124.833 29.3609 125.232 29.8753 125.575L30.7326 125.831C31.4184 126.031 32.0471 126.373 32.5901 126.801L32.8187 126.972C33.2187 127.143 33.6474 127.343 34.0189 127.543L34.9619 128.085C35.9621 128.113 36.9051 128.484 37.7052 129.055Z"
    fill="#41434B" />
  <path fill-rule="evenodd" clip-rule="evenodd"
    d="M32.6475 52.1248C35.5337 58.9991 40.6488 60.2542 47.9643 58.2289C47.9072 57.1165 48.2215 55.9185 48.9074 54.6634C48.9074 54.6634 45.4211 50.6415 38.4484 42.5977C34.6764 37.5204 34.8764 37.2066 35.4479 41.742C35.4479 41.742 34.4192 48.1884 32.6475 52.1248Z"
    fill="#FCD8B0" />
  <path fill-rule="evenodd" clip-rule="evenodd"
    d="M33.6187 53.1519C40.8199 58.7997 45.0492 60.1974 46.3351 57.3165C43.2774 57.0312 40.7056 54.9489 39.7626 52.068C37.5622 48.7307 36.9621 44.1098 36.1619 44.4521C35.6476 47.0478 34.1902 52.0395 33.6187 53.1519Z"
    fill="#FBC080" />
  <path fill-rule="evenodd" clip-rule="evenodd"
    d="M50.9074 58.1152C51.0217 57.7158 51.0217 57.1739 50.736 56.4322C50.5645 55.9473 50.193 55.3198 49.6215 54.5497C49.3072 54.1218 48.8785 54.1218 48.7071 54.5211C47.7069 56.7175 45.6494 58.2007 43.249 58.4575C44.7636 62.8217 45.5065 65.018 45.5065 65.018C45.7352 65.7596 46.4781 65.7026 47.2497 64.8754C49.1643 62.5935 50.3931 60.3686 50.9074 58.1152Z"
    fill="#E2E2E4" />
  <path fill-rule="evenodd" clip-rule="evenodd"
    d="M30.4467 38.7469C32.6757 39.9164 32.8185 40.7436 33.6758 40.9718C34.9046 42.2553 35.8762 42.1413 36.3334 40.658C39.7626 47.0474 42.9346 48.4451 46.1923 44.8225C50.9645 44.3947 53.3649 44.1665 53.3649 44.1665C53.765 44.0524 53.1363 44.5943 53.1077 44.5658C53.1649 43.6816 53.6221 45.3074 53.9079 44.4517C54.5651 42.4835 55.2224 37.72 54.7937 36.3794C34.5903 28.1359 26.4746 28.906 30.4467 38.7469Z"
    fill="#FCD8B0" />
  <path fill-rule="evenodd" clip-rule="evenodd"
    d="M44.1922 34.6395C38.6198 30.5605 36.1908 30.9598 36.8481 35.8945C37.3624 37.2922 37.2195 38.8325 36.4766 40.0876C37.0195 44.6514 39.5628 46.4485 44.1064 45.4786C44.878 43.3678 44.135 41.6564 41.9346 40.3443C40.563 39.5741 39.9629 37.9483 40.5344 36.522C41.1059 35.0673 42.649 34.2686 44.1922 34.6395Z"
    fill="#FBC080" />
  <path fill-rule="evenodd" clip-rule="evenodd"
    d="M32.9333 28.6778L33.0761 28.8775C33.3333 29.3054 33.6191 29.7332 33.9334 30.1326C34.3335 30.8171 34.7907 31.4447 35.3051 32.0152C35.1622 33.1561 35.1908 34.3256 35.3908 35.4951C33.3905 32.7853 30.3614 35.98 33.5905 40.658C34.4478 41.9416 33.3619 44.0238 32.3332 42.8543C28.2753 37.8341 27.3895 32.0152 29.7899 27.708C30.7615 28.1929 31.8188 28.5067 32.9333 28.6778Z"
    fill="#41434B" />
  <path fill-rule="evenodd" clip-rule="evenodd"
    d="M45.335 44.1095C46.5924 42.7118 48.4498 42.6547 51.7075 42.8829C53.5078 42.9685 54.1079 43.539 54.0793 44.8796C53.9079 52.1533 52.0218 55.1768 48.2212 55.1768C45.5636 55.1768 42.9917 54.4352 40.8771 53.1231C40.3913 52.353 39.8484 51.6398 39.2197 50.9838C39.0768 50.4418 38.9339 49.9284 38.7339 49.4435C39.9341 48.8445 41.0486 48.0743 42.0202 47.1045L42.1059 47.0189C42.706 46.4485 43.2204 45.7924 43.7062 45.1078C44.2777 44.9367 44.8778 44.5944 45.335 44.1095Z"
    fill="#41434B" />
  <path fill-rule="evenodd" clip-rule="evenodd"
    d="M33.7614 35.8661C34.3615 35.6949 35.1045 36.4651 35.4474 37.5775C35.7903 38.69 35.5903 39.7454 34.9902 39.9165C34.3901 40.0877 33.6471 39.3175 33.3042 38.2051C32.9613 37.0926 33.1899 36.0372 33.7614 35.8661Z"
    fill="#A34242" />
  <path fill-rule="evenodd" clip-rule="evenodd"
    d="M52.2218 36.3794C52.279 37.4633 52.6219 38.4331 53.222 39.2889C54.6222 41.3426 53.5363 43.2537 50.9073 42.4836C50.4787 42.0842 50.0214 41.9701 49.7357 42.3409C49.2499 42.4836 48.7069 42.3124 48.4212 41.9131C48.1068 41.5137 48.1068 40.9718 48.364 40.5439C48.6498 40.1161 49.1642 39.9164 49.65 40.0305L49.7357 39.6026C50.05 39.46 50.3072 39.2603 50.5644 39.0036C50.8502 38.7184 51.1645 38.2905 51.336 37.9197C51.3645 37.8341 51.3931 37.7486 51.4503 37.6915C51.5074 37.6059 51.536 37.4918 51.5931 37.4063C51.6217 37.3492 51.6503 37.2922 51.6789 37.2351C51.8789 36.9784 52.0789 36.6932 52.2218 36.3794Z"
    fill="#A34242" />
  <path fill-rule="evenodd" clip-rule="evenodd"
    d="M47.1927 35.4097C47.5928 35.4097 47.9357 35.752 47.9357 36.1513C47.9357 36.5506 47.5928 36.8929 47.1927 36.8929C46.7926 36.8929 46.4497 36.5506 46.4497 36.1513C46.4497 35.752 46.7926 35.4097 47.1927 35.4097Z"
    fill="black" />
  <path fill-rule="evenodd" clip-rule="evenodd"
    d="M54.2796 35.6094C54.6796 35.6094 54.994 35.9231 54.994 36.3225C54.994 36.7218 54.6796 37.0356 54.2796 37.0356C53.8795 37.0356 53.5651 36.7218 53.5651 36.3225C53.5366 35.9517 53.8795 35.6094 54.2796 35.6094Z"
    fill="black" />
  <path fill-rule="evenodd" clip-rule="evenodd"
    d="M30.6179 26.4814C36.0474 28.4211 38.8479 31.3876 38.7336 33.4984C38.5336 36.9783 36.5618 38.4616 36.1617 37.0924C35.4473 35.0672 34.3328 34.3541 33.447 34.5823C32.7611 32.1292 31.3609 29.9899 29.4463 28.3926C29.7606 27.708 30.1607 27.0805 30.6179 26.4814Z"
    fill="#31333B" />
  <path fill-rule="evenodd" clip-rule="evenodd"
    d="M30.4465 27.4513C44.0773 33.9548 49.1639 29.391 43.5058 14.2446C33.1326 15.7279 25.417 22.6878 30.4465 27.4513Z"
    fill="#73747A" />
  <path fill-rule="evenodd" clip-rule="evenodd"
    d="M35.2191 22.0034C37.5338 28.2217 36.4765 30.1043 32.1043 27.6227C30.9898 27.0807 30.4183 25.8542 30.7326 24.6562C31.047 23.4867 32.1615 22.6595 33.3902 22.745C34.2475 22.7736 34.8762 22.5169 35.2191 22.0034Z"
    fill="#B7B8BA" />
  <path fill-rule="evenodd" clip-rule="evenodd"
    d="M35.7335 28.6781C46.3639 34.2403 52.765 33.0993 55.0225 26.1109C57.1371 18.6376 55.4511 14.9294 50.1931 14.2163C38.3054 12.9042 32.5329 18.6376 35.7335 28.6781Z"
    fill="white" />
  <path fill-rule="evenodd" clip-rule="evenodd"
    d="M36.8765 28.9346C45.2207 33.4129 50.5074 32.6998 53.1078 28.3071C49.1928 22.0603 40.1342 27.7081 38.1338 21.6895C37.8766 20.9193 37.7623 19.0082 38.5625 17.3823C35.9049 19.6643 35.2476 24.057 36.8765 28.9346Z"
    fill="#B7B8BA" />
  <path fill-rule="evenodd" clip-rule="evenodd"
    d="M41.306 53.3801C37.0195 50.9555 34.3905 46.2776 36.1908 40.6298C36.5623 39.4888 37.3053 39.4603 37.6768 40.7154C38.9342 44.9369 42.1061 45.9353 44.2779 44.8799C43.9922 47.1618 39.2771 47.6182 41.306 53.3801Z"
    fill="#31333B" />
  <path fill-rule="evenodd" clip-rule="evenodd"
    d="M53.165 44.8224C53.9366 44.7654 53.8794 45.0792 53.6222 45.9064C52.7078 48.5306 49.0501 48.4735 47.164 45.5641C46.9069 45.1933 47.164 44.8224 47.6213 44.8224C50.1645 44.908 52.022 44.908 53.165 44.8224Z"
    fill="#FCD8B0" />
  <path fill-rule="evenodd" clip-rule="evenodd"
    d="M49.9928 38.4905C50.2786 36.066 50.9644 35.2388 52.0789 36.066C52.0789 36.066 52.0503 36.6079 51.9932 37.6633C51.4216 38.6046 50.5929 39.4033 49.6499 39.9738C49.7642 39.4318 49.8785 38.9469 49.9928 38.4905Z"
    fill="#8D1515" />
  <path
    d="M56.8513 33.4984C56.3655 32.9564 55.7082 32.6141 54.9652 32.6141C54.2223 32.6141 53.565 32.9564 53.0792 33.4984C52.5934 34.0404 52.3076 34.782 52.3076 35.6092C52.3076 36.4364 52.5934 37.178 53.0792 37.72C53.565 38.2619 54.2223 38.6042 54.9652 38.6042C55.7082 38.6042 56.3655 38.2619 56.8513 37.72C57.3371 37.178 57.6228 36.4364 57.6228 35.6092C57.6514 34.782 57.3371 34.0404 56.8513 33.4984ZM48.9642 33.9833C48.4213 33.4413 47.6497 33.0991 46.821 33.0991C45.9923 33.0991 45.2207 33.4413 44.6778 33.9833C44.1348 34.5253 43.7919 35.2669 43.7919 36.0941C43.7919 36.9213 44.1348 37.6629 44.6778 38.2049C45.2207 38.7468 45.9923 39.0891 46.821 39.0891C47.6497 39.0891 48.4213 38.7468 48.9642 38.2049C49.5072 37.6629 49.8501 36.9213 49.8501 36.0941C49.8501 35.2954 49.5072 34.5253 48.9642 33.9833ZM42.8775 36.6646L36.1906 36.3793C35.9334 36.3793 35.7334 36.1511 35.7334 35.8944C35.7334 35.6377 35.962 35.438 36.2192 35.438L42.8489 35.7233C42.9346 34.782 43.3633 33.9548 43.9919 33.3273C44.7064 32.6141 45.7065 32.1863 46.7924 32.1863C47.8783 32.1863 48.8785 32.6141 49.5929 33.3273C50.3073 34.0404 50.7645 35.0102 50.7645 36.0941C50.7645 37.178 50.3073 38.1478 49.5929 38.8609C48.8785 39.574 47.8783 40.0019 46.7924 40.0019C45.7065 40.0019 44.7064 39.574 43.9919 38.8609C43.3918 38.2905 42.9918 37.5203 42.8775 36.6646ZM54.9652 31.6729C55.9368 31.6729 56.8227 32.1007 57.4514 32.8138C58.0801 33.5269 58.4801 34.4967 58.4801 35.5807C58.4801 36.6646 58.0801 37.6344 57.4514 38.3475C56.8227 39.0606 55.9368 39.4885 54.9652 39.4885C53.9936 39.4885 53.1078 39.0606 52.4791 38.3475C51.8504 37.6344 51.4504 36.6646 51.4504 35.5807C51.4504 34.4967 51.8504 33.5269 52.4791 32.8138C53.1364 32.1292 53.9936 31.6729 54.9652 31.6729Z"
    fill="black" />
  <path fill-rule="evenodd" clip-rule="evenodd"
    d="M32.6475 29.448C30.5042 27.9362 29.3898 26.6526 31.6759 27.3657C41.9919 30.5889 54.5655 29.4195 54.7369 26.8238C54.7655 26.3674 55.2799 26.3674 56.3086 26.8808C62.5954 30.1611 64.6243 32.8138 63.3384 34.2971C60.6808 37.2921 51.2792 37.2636 46.1641 35.6092C36.591 32.5001 32.6475 29.448 32.6475 29.448Z"
    fill="#73747A" />
  <path fill-rule="evenodd" clip-rule="evenodd"
    d="M35.4191 30.2752C33.7045 29.1913 32.7329 28.4211 34.5618 28.9631C37.9052 29.9044 41.8773 30.104 45.0207 30.2752C50.7931 30.4749 45.5922 34.183 54.308 35.7804C51.5361 35.8374 48.4499 35.4381 46.3067 34.7535C38.6196 32.386 35.4191 30.2752 35.4191 30.2752Z"
    fill="#484951" />
  <path fill-rule="evenodd" clip-rule="evenodd"
    d="M30.8183 57.2877C33.4187 60.9958 36.2763 63.8768 39.7341 65.5026C40.82 65.9876 41.5058 66.4154 41.9059 65.5597C41.9059 65.5597 42.8489 63.4489 44.7064 59.2273C44.8778 58.828 44.6492 58.4572 44.0491 58.229C38.2767 56.1182 34.4475 53.6936 32.6186 50.9553C32.2185 50.3848 31.6184 50.4989 31.2755 51.2691C30.5039 52.9235 30.161 54.4353 30.2467 55.7759C30.3039 56.4605 30.6468 57.031 30.8183 57.2877Z"
    fill="#E2E2E4" />
  <path fill-rule="evenodd" clip-rule="evenodd"
    d="M31.7898 57.031C34.1331 60.2543 36.1334 62.1084 38.791 63.3349C38.591 63.0782 38.5053 62.6503 38.591 62.0513C39.0196 59.0563 38.1052 56.8884 35.8477 55.5478C34.5046 54.8347 33.3901 53.7793 32.6471 52.4387C32.3614 52.0964 32.1042 52.2105 31.9041 52.838C31.2755 54.635 31.0468 56.0327 31.7898 57.031Z"
    fill="#B7B8BA" />
  <path fill-rule="evenodd" clip-rule="evenodd"
    d="M84.656 57.3164H58.5088C57.9086 57.3164 57.4229 57.8013 57.4229 58.4003V82.5032C57.4229 83.1023 57.9086 83.5872 58.5088 83.5872H84.656C85.2561 83.5872 85.742 83.1023 85.742 82.5032V58.4003C85.7134 57.8013 85.2276 57.3164 84.656 57.3164Z"
    fill="#FCD2A5" />
  <path fill-rule="evenodd" clip-rule="evenodd"
    d="M57.5944 70.4375V82.9596C57.5944 83.2734 58.4802 83.5586 59.5661 83.5586H88.7139C70.9109 81.9327 77.7121 76.3705 58.5088 72.7194C56.3084 72.2916 57.6801 71.1791 57.5944 70.4375Z"
    fill="#DD7131" />
  <path fill-rule="evenodd" clip-rule="evenodd"
    d="M47.9927 57.3164H58.8802C59.166 57.3164 59.4232 57.5446 59.4232 57.8584V83.0452C59.4232 83.3304 59.1946 83.5872 58.8802 83.5872H47.9927C47.7069 83.5872 47.4497 83.359 47.4497 83.0452V57.8584C47.4497 57.5446 47.7069 57.3164 47.9927 57.3164Z"
    fill="#D95F18" />
  <path fill-rule="evenodd" clip-rule="evenodd"
    d="M73.4257 57.2305H69.7393C69.6536 57.2305 69.5679 57.316 69.5679 57.4016V63.6484C69.5679 63.734 69.6536 63.8195 69.7393 63.8195H73.4257C73.5114 63.8195 73.5971 63.734 73.5971 63.6484V57.4016C73.5685 57.2875 73.5114 57.2305 73.4257 57.2305Z"
    fill="#FEEFDE" />
  <path fill-rule="evenodd" clip-rule="evenodd"
    d="M59.4232 70.4375V83.1593C59.4232 83.3875 59.1946 83.5586 58.8803 83.5586H48.5356C48.9357 77.3689 57.4229 79.3656 59.4232 70.4375Z"
    fill="#8C1313" />
  <path fill-rule="evenodd" clip-rule="evenodd"
    d="M56.5654 76.7124H50.6501C50.3358 76.7124 50.0786 76.9691 50.0786 77.2829V80.2494C50.0786 80.5632 50.3358 80.8199 50.6501 80.8199H56.5654C56.8798 80.8199 57.137 80.5632 57.137 80.2494V77.2829C57.137 76.9691 56.8798 76.7124 56.5654 76.7124Z"
    fill="#FEEFDE" />
  <path fill-rule="evenodd" clip-rule="evenodd"
    d="M95.7437 82.8452H49.7645C48.7071 82.8452 47.8784 83.7009 47.8784 84.7278V127.115C47.8784 128.17 48.7357 128.997 49.7645 128.997H95.7437C96.801 128.997 97.6297 128.142 97.6297 127.115V84.7278C97.6583 83.7009 96.801 82.8452 95.7437 82.8452Z"
    fill="#FCD2A5" />
  <path fill-rule="evenodd" clip-rule="evenodd"
    d="M80.8842 114.621C82.3988 114.621 83.6561 115.848 83.6561 117.388C83.6561 118.928 82.4273 120.155 80.8842 120.155C79.3697 120.155 78.1123 118.928 78.1123 117.388C78.1123 115.848 79.3697 114.621 80.8842 114.621Z"
    fill="#FBC68C" />
  <path fill-rule="evenodd" clip-rule="evenodd"
    d="M48.0501 88.7783V127.2C48.0501 128.199 49.3932 128.997 51.022 128.997H95.1438C68.2249 124.063 78.4838 106.948 49.4217 95.7667C46.1069 94.5117 48.2215 91.1173 48.0501 88.7783Z"
    fill="#FBC68C" />
  <path fill-rule="evenodd" clip-rule="evenodd"
    d="M47.8785 103.411V127.885C47.8785 128.512 48.7357 129.026 49.7645 129.026H77.8836C60.7378 125.888 67.2818 114.992 48.7643 107.861C46.6211 107.062 47.9642 104.894 47.8785 103.411Z"
    fill="#DD7131" />
  <path fill-rule="evenodd" clip-rule="evenodd"
    d="M31.2755 82.8452H50.4216C50.936 82.8452 51.3647 83.2731 51.3647 83.7865V128.085C51.3647 128.598 50.936 129.026 50.4216 129.026H31.2755C30.7612 129.026 30.3325 128.598 30.3325 128.085V83.7865C30.3325 83.2731 30.7612 82.8452 31.2755 82.8452Z"
    fill="#D95F18" />
  <path fill-rule="evenodd" clip-rule="evenodd"
    d="M75.9974 82.6743H69.5392C69.3677 82.6743 69.2534 82.8169 69.2534 82.9596V105.465C69.2534 105.636 69.3963 105.75 69.5392 105.75H75.9974C76.1689 105.75 76.2832 105.608 76.2832 105.465V82.9596C76.2832 82.8169 76.1689 82.6743 75.9974 82.6743Z"
    fill="#FEEFDE" />
  <path fill-rule="evenodd" clip-rule="evenodd"
    d="M43.592 107.718C44.1349 107.718 44.5921 108.175 44.5921 108.717C44.5921 109.259 44.1349 109.715 43.592 109.715C43.049 109.715 42.5918 109.259 42.5918 108.717C42.5918 108.146 43.0204 107.718 43.592 107.718Z"
    fill="#8C1313" />
  <path fill-rule="evenodd" clip-rule="evenodd"
    d="M51.3933 98.6191V128.085C51.3933 128.598 50.9646 129.026 50.4503 129.026H32.2472C32.3329 127.229 32.6472 125.717 33.133 124.433C32.8473 124.405 32.5329 124.348 32.2472 124.234C31.1041 123.777 30.3325 122.665 30.3611 121.438C30.3611 121.438 30.3611 120.126 30.3611 117.502C31.8471 120.754 34.3046 121.809 35.9906 120.126C40.82 115.22 48.9071 113.166 51.3933 98.6191Z"
    fill="#8C1313" />
  <path fill-rule="evenodd" clip-rule="evenodd"
    d="M44.7349 89.292H37.5623C37.1908 89.292 36.8765 89.6058 36.8765 89.9766V93.5706C36.8765 93.9414 37.1908 94.2552 37.5623 94.2552H44.7349C45.1064 94.2552 45.4208 93.9414 45.4208 93.5706V89.9766C45.4208 89.6058 45.1064 89.292 44.7349 89.292Z"
    fill="#FEEFDE" />
  <path fill-rule="evenodd" clip-rule="evenodd"
    d="M81.8272 109.344C82.5988 109.344 83.1989 109.972 83.1989 110.713C83.1989 111.484 82.5702 112.083 81.8272 112.083C81.0842 112.083 80.4555 111.455 80.4555 110.713C80.427 109.972 81.0556 109.344 81.8272 109.344Z"
    fill="#FBC68C" />
  <path fill-rule="evenodd" clip-rule="evenodd"
    d="M91.6859 120.412C92.2003 120.412 92.6004 120.811 92.6004 121.324C92.6004 121.838 92.2003 122.237 91.6859 122.237C91.1715 122.237 90.7715 121.838 90.7715 121.324C90.7715 120.811 91.2001 120.412 91.6859 120.412Z"
    fill="#FBC68C" />
  <path fill-rule="evenodd" clip-rule="evenodd"
    d="M74.1685 70.9507C74.9401 70.9507 75.5402 71.5782 75.5402 72.3198C75.5402 73.09 74.9115 73.689 74.1685 73.689C73.397 73.689 72.7969 73.0615 72.7969 72.3198C72.7969 71.5497 73.397 70.9507 74.1685 70.9507Z"
    fill="#DD7131" />
  <path fill-rule="evenodd" clip-rule="evenodd"
    d="M42.906 123.777C40.6771 123.121 38.3624 122.75 36.0191 122.722C36.0191 122.722 30.4182 118.015 19.6735 107.889C18.0732 106.406 17.2731 103.81 17.816 101.357C17.816 101.357 18.4733 97.4781 19.9021 90.5182C18.5876 87.3235 16.6158 85.2697 13.2724 84.2999C9.92898 83.3301 6.35694 83.9576 3.55647 85.9828C2.04192 94.8824 1.27036 99.3321 1.27036 99.3321C0.270193 106.064 1.81331 111.483 5.9283 114.193C22.5883 124.376 30.904 129.454 30.904 129.454C32.6185 132.135 35.6476 133.704 38.8482 133.618C42.0487 133.504 44.9349 131.764 46.5066 128.969C42.5631 128.398 40.1055 127.514 39.1911 126.373C40.277 126.116 41.42 126.116 42.5059 126.43C43.2203 126.487 43.849 126.002 43.9633 125.289C44.0491 124.605 43.5918 123.92 42.906 123.777Z"
    fill="#FCD8B0" />
  <path fill-rule="evenodd" clip-rule="evenodd"
    d="M5.27104 84.0146C12.0722 85.9828 15.5299 88.008 15.6442 90.0903C14.8155 93.9411 13.501 96.9076 11.6721 99.0469C7.98578 103.383 7.70002 108.403 12.4151 111.683C15.6442 113.765 17.5017 116.275 17.9875 119.185C18.1589 119.984 18.4447 120.64 18.8448 121.153L6.95704 113.737C2.92778 111.027 1.47039 106.321 2.52771 99.6459C2.69917 99.4747 2.7849 99.2466 2.84205 99.0469C2.8992 98.9043 2.92778 98.7616 2.95636 98.619C3.01351 98.5334 3.04209 98.4479 3.07066 98.3338C3.12781 98.1912 3.18497 98.0485 3.18497 97.9059C3.24212 97.7633 3.2707 97.6207 3.29927 97.5066C3.29927 97.4781 3.32785 97.421 3.32785 97.3925C3.35642 97.3069 3.385 97.2213 3.41358 97.1643C3.44215 97.0787 3.47073 96.9646 3.49931 96.879C3.49931 96.8505 3.52788 96.822 3.52788 96.822C3.61361 96.7364 3.67076 96.6223 3.69934 96.5368C3.75649 96.4512 3.81365 96.3656 3.8708 96.2515C3.89937 96.1659 3.95653 96.1089 4.01368 96.0233C4.04226 95.9948 4.04226 95.9663 4.07083 95.9378C4.12798 95.8522 4.18514 95.7381 4.24229 95.6525C4.27087 95.5955 4.29944 95.5384 4.32802 95.4814L4.41375 95.3387C4.75666 94.7683 4.64236 94.0552 4.15656 93.5988L4.18514 93.5702C4.38517 93.4276 4.52805 93.228 4.61378 93.0283C4.67093 92.9142 4.72809 92.7716 4.75666 92.6575C4.75666 92.6289 4.78524 92.6004 4.78524 92.5719C4.87097 92.4293 4.9567 92.2581 4.98527 92.1155C5.071 91.9158 5.09958 91.7732 5.09958 91.5736C5.24246 91.3739 5.32819 91.1172 5.32819 90.889C5.38534 90.6893 5.41392 90.5467 5.41392 90.347C5.44249 90.29 5.44249 90.2329 5.47107 90.1759C5.52822 90.0047 5.58538 89.8621 5.58538 89.6339V88.4359C5.72826 88.2077 5.81399 87.951 5.81399 87.6657V87.352L5.89971 87.0953C5.98544 86.8671 6.0426 86.6674 6.0426 86.4107V85.3553C6.0426 84.7848 5.69968 84.2999 5.24246 84.1002L5.27104 84.0146Z"
    fill="#FBC080" />
  <path fill-rule="evenodd" clip-rule="evenodd"
    d="M2.75609 98.3341C2.41318 100.217 2.21315 101.757 2.18457 103.012C2.44176 100.416 3.58481 98.1345 5.61372 96.1948C8.01412 93.7988 9.41435 90.5756 9.55724 87.1812C7.58548 83.958 6.04236 83.5871 4.89931 86.0402C4.01345 91.2601 3.29904 95.3676 2.75609 98.3341Z"
    fill="#FAB264" />
  <path fill-rule="evenodd" clip-rule="evenodd"
    d="M10.929 87.8085C20.1592 92.8288 21.8452 91.8304 23.4454 86.6105C28.3891 70.4373 27.5604 61.6519 19.8734 59.8834C11.3862 57.9437 6.24249 65.5597 2.1275 82.0752C1.38452 85.0132 2.1275 86.1541 4.49933 86.0115C6.44252 85.983 8.58575 86.582 10.929 87.8085Z"
    fill="#85878B" />
  <path fill-rule="evenodd" clip-rule="evenodd"
    d="M11.8147 86.7245C13.6435 87.7228 15.1581 88.4359 16.3869 88.9494C18.5301 81.8754 11.2431 77.882 11.2431 71.8349C11.2431 68.2979 11.4432 65.1887 14.0436 61.7373C11.1288 63.2491 8.72842 66.6435 6.69951 71.9204C6.61378 74.1738 6.35659 76.4558 5.89937 78.7377L5.8708 78.9374C5.72791 79.6505 5.58503 80.3351 5.41357 81.0482C6.87097 82.5029 8.18547 84.0717 9.41426 85.7261C10.1858 85.9258 10.986 86.2966 11.8147 86.7245Z"
    fill="#5E6066" />
  <path fill-rule="evenodd" clip-rule="evenodd"
    d="M11.815 86.7244C12.0722 86.867 12.3008 86.9811 12.5294 87.1237C11.272 81.1051 4.64233 84.9844 8.70015 67.5562C6.81412 70.9505 5.21385 75.6 3.75646 81.5045C3.07063 84.1857 3.75646 85.2411 5.95683 85.127C7.69998 85.0415 9.67175 85.5834 11.815 86.7244Z"
    fill="#41434B" />
  <path fill-rule="evenodd" clip-rule="evenodd"
    d="M93.2575 111.94C93.8004 111.94 94.2577 112.396 94.2577 112.938C94.2577 113.48 93.8004 113.937 93.2575 113.937C92.7145 113.937 92.2573 113.48 92.2573 112.938C92.2573 112.396 92.7145 111.94 93.2575 111.94Z"
    fill="#FFFFCC" />
  <path fill-rule="evenodd" clip-rule="evenodd"
    d="M127.92 111.769C128.235 111.769 128.52 112.026 128.52 112.368C128.52 112.682 128.263 112.967 127.92 112.967C127.606 112.967 127.32 112.71 127.32 112.368C127.349 112.054 127.606 111.769 127.92 111.769Z"
    fill="#FFFFCC" />
  <path fill-rule="evenodd" clip-rule="evenodd"
    d="M104.345 121.866C104.831 121.866 105.231 122.266 105.231 122.75C105.231 123.235 104.831 123.635 104.345 123.635C103.86 123.635 103.459 123.235 103.459 122.75C103.459 122.266 103.86 121.866 104.345 121.866Z"
    fill="#FFFFCC" />
  <path fill-rule="evenodd" clip-rule="evenodd"
    d="M152.953 99.7603C153.296 99.7603 153.582 100.046 153.582 100.388C153.582 100.73 153.296 101.015 152.953 101.015C152.61 101.015 152.325 100.73 152.325 100.388C152.296 100.046 152.61 99.7603 152.953 99.7603Z"
    fill="#FFFFCC" />
  <path fill-rule="evenodd" clip-rule="evenodd"
    d="M38.7626 103.041C39.2198 103.041 39.6198 103.411 39.6198 103.896C39.6198 104.353 39.2484 104.752 38.7626 104.752C38.3053 104.752 37.9053 104.381 37.9053 103.896C37.9053 103.411 38.3053 103.041 38.7626 103.041Z"
    fill="#FFFFCC" />
  <path fill-rule="evenodd" clip-rule="evenodd"
    d="M55.7368 94.9111C56.6227 94.9111 57.3371 95.6242 57.3371 96.5085C57.3371 97.3927 56.6227 98.1059 55.7368 98.1059C54.851 98.1059 54.1365 97.3927 54.1365 96.5085C54.108 95.6242 54.851 94.9111 55.7368 94.9111Z"
    fill="#FFFFCC" />
  <path fill-rule="evenodd" clip-rule="evenodd"
    d="M20.3023 113.937C20.6452 113.937 20.9596 114.222 20.9596 114.593C20.9596 114.935 20.6738 115.249 20.3023 115.249C19.9308 115.249 19.645 114.963 19.645 114.593C19.6736 114.222 19.9594 113.937 20.3023 113.937Z"
    fill="#FFFFCC" />
  <path fill-rule="evenodd" clip-rule="evenodd"
    d="M35.2477 73.3184C35.7907 73.3184 36.2479 73.7747 36.2479 74.3167C36.2479 74.8586 35.7907 75.315 35.2477 75.315C34.7048 75.315 34.2476 74.8586 34.2476 74.3167C34.2476 73.7747 34.7048 73.3184 35.2477 73.3184Z"
    fill="#FFFFCC" />
  <path fill-rule="evenodd" clip-rule="evenodd"
    d="M126.692 67.2427C127.235 67.2427 127.692 67.6991 127.692 68.241C127.692 68.783 127.235 69.2394 126.692 69.2394C126.149 69.2394 125.692 68.783 125.692 68.241C125.692 67.6705 126.149 67.2427 126.692 67.2427Z"
    fill="#FFFFCC" />
  <path fill-rule="evenodd" clip-rule="evenodd"
    d="M11.5577 92.9429C12.0149 92.9429 12.3864 93.3137 12.3864 93.7701C12.3864 94.2265 12.0149 94.5973 11.5577 94.5973C11.1005 94.5973 10.729 94.2265 10.729 93.7701C10.729 93.3137 11.1005 92.9429 11.5577 92.9429Z"
    fill="#FFFFCC" />
  <path fill-rule="evenodd" clip-rule="evenodd"
    d="M63.1668 62.9072C63.5097 62.9072 63.7954 63.1925 63.7954 63.5348C63.7954 63.8771 63.5097 64.1623 63.1668 64.1623C62.8238 64.1623 62.5381 63.8771 62.5381 63.5348C62.5381 63.1925 62.8238 62.9072 63.1668 62.9072Z"
    fill="#FFFFCC" />
  <path fill-rule="evenodd" clip-rule="evenodd"
    d="M93.5147 31.6162C95.2293 31.6162 96.6295 33.0139 96.6295 34.7253C96.6295 36.4368 95.2293 37.8345 93.5147 37.8345C91.8001 37.8345 90.3999 36.4368 90.3999 34.7253C90.3999 33.0139 91.8001 31.6162 93.5147 31.6162Z"
    fill="white" />
  <path fill-rule="evenodd" clip-rule="evenodd"
    d="M66.4817 46.5054C66.8246 46.5054 67.1104 46.7906 67.1104 47.1329C67.1104 47.4752 66.8246 47.7604 66.4817 47.7604C66.1388 47.7604 65.853 47.4752 65.853 47.1329C65.8816 46.7621 66.1388 46.5054 66.4817 46.5054Z"
    fill="#FFFFCC" />
</svg>
